<?xml version="1.0" encoding="UTF-8" standalone="no"?>
<!-- Uploaded to: SVG Repo, www.svgrepo.com, Generator: SVG Repo Mixer Tools -->

<svg
    xmlns:inkscape="http://www.inkscape.org/namespaces/inkscape"
    xmlns:sodipodi="http://sodipodi.sourceforge.net/DTD/sodipodi-0.dtd"
    version="1.1"
    id="Layer_1"
    viewBox="0 0 396.338 396.338"
    xml:space="preserve"
    width="512"
    height="512"
    sodipodi:docname="logo.svg"
    inkscape:version="1.2.2 (b0a8486541, 2022-12-01)"
    xmlns="http://www.w3.org/2000/svg"
><defs
   id="defs21" />
    <sodipodi:namedview
        id="namedview19"
        pagecolor="#ffffff"
        bordercolor="#000000"
        borderopacity="0.25"
        inkscape:showpageshadow="2"
        inkscape:pageopacity="0.0"
        inkscape:pagecheckerboard="0"
        inkscape:deskcolor="#d1d1d1"
        showgrid="false"
        inkscape:zoom="0.4609375"
        inkscape:cx="257.08475"
        inkscape:cy="257.08475"
        inkscape:window-width="1862"
        inkscape:window-height="1131"
        inkscape:window-x="58"
        inkscape:window-y="32"
        inkscape:window-maximized="1"
        inkscape:current-layer="Layer_1"/>
    <g
        id="g16">
	<path
        style="fill:#9AD14B;"
        d="M134.345,172.389c-10.31,9.53-24.09,15.34-39.23,15.34c-4.64,0-9.15-0.56-13.47-1.59   c-2.2,11.31-7.69,21.44-15.45,29.35c-5.73,5.85-12.69,10.49-20.47,13.5c0,0.05,0.01,0.11,0.01,0.17c0,14.05-5.01,26.93-13.35,36.95   c-24.52-23.25-27.81-61.23-8.34-88.29c2.73-3.8,5.91-7.39,9.55-10.69l0.76-0.69c7.81-7.08,16.87-12,26.43-14.75   c20.33-5.88,42.95-1.99,60.71,11.68C125.635,166.559,129.925,169.569,134.345,172.389z"
        id="path2"/>
        <path
            style="fill:#F95428;"
            d="M388.835,100.049c-4.26,118.37-101.55,213.03-220.96,213.03c-15.8,0-31.21-1.66-46.06-4.8   c-30.03-6.37-57.8-18.83-81.97-36.03c-2.67-1.9-5.16-3.95-7.46-6.14c8.34-10.02,13.35-22.9,13.35-36.95c0-0.06-0.01-0.12-0.01-0.17   c18.3-7.08,32.09-23.17,35.92-42.85c4.32,1.03,8.83,1.59,13.47,1.59c15.14,0,28.92-5.81,39.23-15.34   c27.46,17.52,60.07,27.67,95.06,27.67C299.565,200.059,360.195,159.239,388.835,100.049z"
            id="path4"/>
        <path
            style="fill:#90BC42;"
            d="M45.725,228.989c0,0.05,0.01,0.11,0.01,0.17c0,14.05-5.01,26.93-13.35,36.95   c-24.52-23.25-27.81-61.23-8.34-88.29c2.73-3.8,5.91-7.39,9.55-10.69l0.76-0.69c7.81-7.08,16.87-12,26.43-14.75l0.37,1.75   c0,0-24,32,5,62c0.02,0.02,0.03,0.03,0.04,0.05C60.465,221.339,53.505,225.979,45.725,228.989z"
            id="path6"/>
        <path
            style="fill:#E54728;"
            d="M121.815,308.279c-30.03-6.37-57.8-18.83-81.97-36.03c-2.67-1.9-5.16-3.95-7.46-6.14   c8.34-10.02,13.35-22.9,13.35-36.95c0-0.06-0.01-0.12-0.01-0.17c18.3-7.08,32.09-23.17,35.92-42.85c4.32,1.03,8.83,1.59,13.47,1.59   C95.115,187.729,58.055,275.319,121.815,308.279z"
            id="path8"/>
        <path
            style="fill:#FFFFFF;"
            d="M229.405,230.559c-25.702,0-50.823-4.662-74.666-13.856c-3.865-1.49-5.79-5.831-4.3-9.696   c1.491-3.865,5.829-5.791,9.696-4.299c22.114,8.527,45.42,12.851,69.27,12.851c36.875,0,72.713-10.461,103.64-30.253   c1.078-0.69,2.146-1.388,3.208-2.098c3.445-2.301,8.102-1.377,10.403,2.066c2.303,3.443,1.378,8.101-2.065,10.403   c-1.146,0.766-2.298,1.519-3.46,2.263C307.786,219.279,269.151,230.559,229.405,230.559z"
            id="path10"/>
        <circle
            style="fill:#FFFFFF;"
            cx="135.817"
            cy="199.954"
            r="7.5"
            id="circle12"/>
        <path
            style="fill:#333333;"
            d="M390.646,92.769c-3.445-0.855-7.014,0.818-8.559,4.012c-13.683,28.271-34.928,52.182-61.439,69.148   c-27.219,17.418-58.771,26.625-91.244,26.625c-37.76,0-73.491-12.146-103.33-35.125C96.948,135,56.257,136.455,29.32,160.888   l-0.76,0.689c-1.396,1.266-2.733,2.581-4.019,3.934c-7.415-12.676-18.262-41.138,2.626-78.593   c2.018-3.617,0.721-8.186-2.896-10.203c-3.62-2.018-8.186-0.72-10.203,2.897c-17.52,31.412-15.512,57.676-10.743,74.177   c3.241,11.216,8.158,19.548,11.518,24.361c-7.862,12.884-11.699,27.954-10.782,43.453c1.351,22.817,12.808,43.504,31.435,56.759   c38.813,27.617,84.59,42.215,132.38,42.215c59.608,0,116.031-22.812,158.874-64.233c42.735-41.316,67.447-96.727,69.583-156.024   C396.461,96.773,394.088,93.624,390.646,92.769z M19.035,220.716c-1.079-18.245,6.065-35.751,19.603-48.028l0.76-0.689   c11.324-10.271,25.698-15.458,40.181-15.458c13.083,0,26.253,4.232,37.343,12.772c1.521,1.171,3.061,2.308,4.609,3.427   c-7.881,4.871-16.987,7.49-26.412,7.49c-3.916,0-7.862-0.468-11.729-1.391c-1.984-0.476-4.083-0.117-5.802,0.989   s-2.911,2.866-3.301,4.873c-3.272,16.808-15.254,31.096-31.27,37.289c-2.89,1.118-4.795,3.897-4.795,6.995   c0,0.133,0.004,0.266,0.01,0.4c-0.04,8.714-2.35,17.24-6.619,24.72C24.209,244.63,19.766,233.066,19.035,220.716z M316.324,245.559   c-40.031,38.702-92.751,60.017-148.448,60.017c-44.655,0-87.424-13.637-123.683-39.437c-0.553-0.394-1.082-0.812-1.62-1.222   c6.038-9.228,9.661-19.894,10.481-30.937c16.22-7.792,28.678-22.166,34.12-39.237c2.643,0.325,5.297,0.489,7.943,0.489   c14.538,0,28.495-4.798,39.89-13.604c28.433,17.017,60.67,25.927,94.396,25.927c35.345,0,69.692-10.025,99.329-28.991   c18.987-12.151,35.492-27.576,48.804-45.475C369.246,175.718,348.126,214.813,316.324,245.559z"
            id="path14"/>
</g>


    <path
        style="fill:#ff6600;stroke-width:2.16949"
        d="m 169.22034,389.62072 c -34.49739,-6.63729 -39.79677,-10.03076 -49.79148,-31.88419 -10.93746,-23.91473 -12.42624,-54.41581 -4.29952,-88.08589 l 3.65274,-15.13383 15.35147,-2.37618 c 8.8284,-1.36651 20.77356,-5.17258 28.11193,-8.95727 l 12.76047,-6.58109 14.97506,7.54132 c 91.72846,46.19371 204.565,26.83439 277.17439,-47.55469 9.74928,-9.98824 17.72596,-17.18303 17.72596,-15.98841 0,1.19461 -3.46796,12.54651 -7.70656,25.22644 -29.59158,88.52441 -101.68632,155.48912 -193.37672,179.61665 -18.26205,4.8055 -26.84296,5.70861 -60.34045,6.35059 -26.67391,0.51121 -43.8641,-0.17765 -54.23729,-2.17345 z m 178.65214,-95.7209 c 31.8131,-6.03484 84.19493,-27.71266 97.96623,-40.54258 7.43378,-6.92563 4.50493,-19.05216 -4.60158,-19.05216 -2.04908,0 -14.78942,5.77187 -28.31186,12.82638 -50.60704,26.40108 -99.55254,35.2622 -151.51056,27.42954 -11.34055,-1.70959 -28.78114,-5.6867 -38.75686,-8.83803 -10.16812,-3.21211 -20.34814,-5.17489 -23.16842,-4.46705 -10.34558,2.59658 -8.36989,16.71042 2.94756,21.05671 12.41951,4.76953 46.05389,12.8832 61.37074,14.80456 20.94444,2.62729 61.42051,1.07817 84.06475,-3.21737 z M 182.88814,266.41356 c 4.12522,-4.12522 3.16303,-14.30037 -1.59297,-16.8457 -6.62458,-3.54537 -10.61364,-2.6677 -14.44382,3.1779 -3.29203,5.02427 -3.29203,5.8232 0,10.84746 3.80805,5.81181 11.66375,7.19337 16.03679,2.82034 z"
        id="path319"
        transform="scale(0.77409766)"/>
    <path
        style="fill:#ff6600;stroke-width:2.16949"
        d=""
        id="path321"
        transform="scale(0.77409766)"/>
    <path
        style="fill:#ff7f2a;stroke-width:2.16949"
        d="M 115.87909,374.43941 C 98.528143,367.22728 70.444679,352.31224 63.435168,346.5866 l -5.988561,-4.89168 5.394694,-13.01695 c 2.967082,-7.15933 5.417866,-15.50951 5.446188,-18.55597 0.03984,-4.28584 3.036284,-7.64395 13.244168,-14.84275 12.642464,-8.91571 30.197153,-31.31508 30.197153,-38.53085 0,-1.60484 1.33015,-2.91789 2.95589,-2.91789 2.3956,0 2.17691,3.18696 -1.15373,16.81356 -9.0071,36.8506 -4.33635,78.52696 11.2051,99.9813 3.59996,4.96961 5.80706,8.99438 4.90466,8.94394 -0.9024,-0.0504 -7.09514,-2.35889 -13.76164,-5.1299 z"
        id="path406"
        transform="scale(0.77409766)"/>
    <path
        style="fill:#ff6600;stroke-width:2.16949"
        d="M 97.627119,364.52141 C 83.308475,357.40186 68.786725,349.29937 65.356565,346.51586 l -6.236655,-5.06091 4.462949,-12.89697 c 2.454623,-7.09333 5.010358,-15.33764 5.679411,-18.32069 0.669054,-2.98305 5.26084,-8.35254 10.203968,-11.93221 11.133353,-8.06243 29.595472,-29.80433 31.394312,-36.97151 0.73625,-2.93346 2.08987,-5.33357 3.00803,-5.33357 0.91816,0 0.4198,6.10169 -1.10747,13.55932 -8.31344,40.59427 -4.44799,78.42931 10.17461,99.58914 7.93072,11.47625 6.58201,11.22967 -25.308601,-4.62705 z"
        id="path410"
        transform="scale(0.77409766)"/></svg>
